Coordinates
version=1
nRows=9
nColumns=36
inDegrees=yes

Units are S.I. units (second, meters, Newtons, ...)
If the header above contains a line with 'inDegrees', this indicates whether rotational values are in degrees (yes) or radians (no).

endheader
time	pelvis_tilt	pelvis_list	pelvis_rotation	pelvis_tx	pelvis_ty	pelvis_tz	hip_flexion_r	hip_adduction_r	hip_rotation_r	knee_angle_r	knee_angle_r_beta	ankle_angle_r	subtalar_angle_r	mtp_angle_r	hip_flexion_l	hip_adduction_l	hip_rotation_l	knee_angle_l	knee_angle_l_beta	ankle_angle_l	subtalar_angle_l	mtp_angle_l	lumbar_extension	lumbar_bending	lumbar_rotation	arm_flex_r	arm_add_r	arm_rot_r	elbow_flex_r	pro_sup_r	arm_flex_l	arm_add_l	arm_rot_l	elbow_flex_l	pro_sup_l
      5.25000000	     -1.80448333	      4.05294148	      1.21538435	      0.45299859	      0.66209271	      0.07073663	     55.42843927	      3.80471243	      2.82452024	    102.65051071	      1.79158939	     41.65246547	     -7.15188556	     -7.49999987	     54.67660935	      2.54584199	     -6.35144014	    104.18321267	      1.81834009	     29.40831623	    -24.89835918	     -7.49999987	    -36.29099150	      1.91433785	      4.85249157	      8.20727234	    -14.11245164	     18.79144918	     33.66133700	     56.06332721	      2.74736768	    -11.83643238	     20.12950474	     48.06142809	     70.85961290
      5.26666670	     -3.50451136	      4.15818439	      1.03280951	      0.44768680	      0.64616784	      0.07215777	     58.78314643	      4.62572558	      3.27165213	    104.40940488	      1.82228789	     42.94003608	     -7.45026065	     -7.49999987	     58.40713225	      2.12167730	     -6.90380760	    106.33546602	      1.85590399	     29.12198897	    -25.53824929	     -7.49999987	    -38.46042019	      1.25674920	      4.56253157	     11.37159969	    -13.93085529	     20.47718802	     33.36651822	     59.33715851	      4.70796946	    -12.08504731	     19.60179616	     49.48160442	     72.37858066
      5.28333330	     -4.44819588	      4.20051921	      1.20948276	      0.44632688	      0.63083752	      0.07253201	     60.83795411	      4.88208834	      3.55164759	    105.99579656	      1.84997564	     43.48992580	     -7.87410783	     -7.49999987	     60.53716277	      2.15614690	     -7.08622376	    107.76682482	      1.88088592	     29.84164637	    -25.98316944	     -7.49999987	    -41.16733694	      1.07765445	      4.55753480	     13.82083283	    -13.86269691	     20.28865114	     33.79535091	     59.38014021	      7.39805980	    -12.04020048	     19.40041698	     50.04399564	     72.40961539
      5.30000000	     -7.22938543	      4.56602579	      1.30395027	      0.45160423	      0.61724610	      0.07151197	     65.28755911	      5.20215125	      4.29407277	    108.19083831	      1.88828635	     44.47659142	     -7.83002009	     -7.49999987	     64.30310301	      2.20568681	     -7.89454503	    109.28012232	      1.90729794	     31.55837151	    -25.92736905	     -7.49999987	    -40.93319693	      0.44237819	      4.33628788	     15.01750808	    -13.57764207	     20.32626796	     33.91847731	     59.92386434	      8.68973013	    -12.57902960	     20.26308341	     51.42277994	     72.83708644
      5.31666670	     -8.67817415	      4.73847787	      1.68864744	      0.45714910	      0.61064572	      0.07128369	     67.23650090	      5.23984673	      4.71446299	    109.57119958	      1.91237820	     43.78735786	     -8.39317412	     -7.49999987	     65.98125008	      2.37325633	     -8.28644920	    110.13702982	      1.92225380	     31.94978203	    -26.20338294	     -7.49999987	    -41.88455962	      0.35237027	      4.00282736	     16.10568305	    -13.30009538	     20.17709305	     33.47859560	     60.55752675	     10.24015501	    -12.65722357	     20.95482738	     51.33560474	     72.98064975
      5.33333330	     -9.53838139	      4.80608770	      1.81586339	      0.45817245	      0.60550357	      0.07039845	     68.63879104	      5.60391076	      5.02297689	    110.71065377	      1.93226543	     43.50794693	     -9.00736024	     -7.49999987	     67.02562679	      2.24906486	     -8.81955410	    111.04205884	      1.93804953	     32.22497172	    -26.50566638	     -7.49999987	    -43.21127180	      0.33956249	      3.81733152	     17.06900871	    -13.22062244	     20.17778117	     33.28522560	     60.81856993	     11.41380003	    -12.60415896	     21.19659206	     51.00899736	     73.10542688
      5.35000000	    -10.95445619	      4.99031188	      1.98367302	      0.45704529	      0.59834276	      0.06987943	     70.45170020	      5.70359436	      5.47924362	    111.45920262	      1.94533007	     42.82968626	     -9.46686083	     -7.49999987	     68.94347215	      2.16884086	     -9.45257100	    111.68627622	      1.94929325	     31.52325954	    -27.31836305	     -7.49999987	    -43.31424008	      0.25429838	      3.55887302	     17.49688199	    -13.04993710	     20.30384374	     32.50174714	     61.42948760	     12.09959988	    -12.59341251	     21.93690328	     49.65766114	     73.43442985
      5.36666670	    -11.78032338	      4.86531197	      1.95283054	      0.45572700	      0.59688489	      0.07110669	     71.65400950	      6.13841825	      5.47753679	    111.74635110	      1.95034175	     42.50627350	    -10.37245170	     -7.49999987	     70.16027016	      1.69664297	     -9.75287550	    112.19324416	      1.95814151	     30.02247646	    -28.15170422	     -7.49999987	    -43.81875223	      0.35573038	      3.91462143	     17.45938832	    -12.98855151	     18.44389818	     32.35332176	     67.53082887	     12.74441397	    -12.50729778	     23.02539017	     47.57792192	     75.02755869
      5.38333330	    -12.67696160	      4.83347983	      2.19522891	      0.45298294	      0.59945453	      0.07192241	     72.42190772	      6.27755113	      5.63567875	    111.17911294	      1.94044158	     41.73336614	    -10.95852091	     -7.49999987	     71.27754670	      1.40120839	     -9.98330096	    111.95171219	      1.95392598	     28.93517266	    -28.43238240	     -7.49999987	    -44.10172923	      0.37981040	      3.66421393	     17.46774712	    -12.97578575	     18.53647136	     32.56915444	     67.38790826	     12.47072768	    -12.65806055	     23.02716564	     46.06024606	     74.48687287
